<svg xmlns="http://www.w3.org/2000/svg" width="34" height="34" viewBox="0 0 34 34">
  <g id="Group_14" data-name="Group 14" transform="translate(-379 -25)">
    <circle id="Ellipse_3" data-name="Ellipse 3" cx="17" cy="17" r="17" transform="translate(379 25)" fill="#ffbd07"/>
    <path id="Icon_ionic-ios-person" data-name="Icon ionic-ios-person" d="M24.29,23.8c-.371-1.64-2.49-2.439-3.223-2.7a24.027,24.027,0,0,0-2.686-.516,2.729,2.729,0,0,1-1.243-.572,10.86,10.86,0,0,1-.082-2.542,7.648,7.648,0,0,0,.588-1.119,14.432,14.432,0,0,0,.433-1.954s.423,0,.572-.742a7.305,7.305,0,0,0,.382-1.727c-.031-.593-.356-.577-.356-.577a9.04,9.04,0,0,0,.351-2.645c.046-2.119-1.614-4.207-4.62-4.207-3.047,0-4.671,2.088-4.625,4.207a9.43,9.43,0,0,0,.345,2.645s-.325-.015-.356.577a7.305,7.305,0,0,0,.382,1.727c.144.742.572.742.572.742a14.432,14.432,0,0,0,.433,1.954,7.648,7.648,0,0,0,.588,1.119,10.86,10.86,0,0,1-.082,2.542,2.729,2.729,0,0,1-1.243.572,24.027,24.027,0,0,0-2.686.516C7,21.361,4.882,22.16,4.51,23.8a.412.412,0,0,0,.407.5h18.97A.411.411,0,0,0,24.29,23.8Z" transform="translate(381.499 26.7)"/>
  </g>
</svg>
